<svg xmlns="http://www.w3.org/2000/svg" xmlns:xlink="http://www.w3.org/1999/xlink" width="120" zoomAndPan="magnify" viewBox="0 0 90 89.999999" height="120" preserveAspectRatio="xMidYMid meet" version="1.0"><path fill="#ff5757" d="M 42.15625 7.171875 C 41.945312 7.214844 41.730469 7.320312 41.46875 7.484375 L 11.808594 24.28125 C 11.558594 24.40625 11.589844 24.472656 11.851562 24.59375 L 45.398438 40.546875 C 46.019531 40.859375 46.277344 40.855469 46.949219 40.460938 L 76.078125 22.058594 C 76.742188 21.621094 76.777344 21.546875 75.914062 21.226562 L 43.335938 7.382812 C 42.835938 7.179688 42.507812 7.09375 42.15625 7.171875 Z M 39.164062 10.757812 C 39.796875 10.601562 40.484375 10.515625 41.210938 10.507812 C 44.128906 10.464844 46.496094 11.703125 46.480469 13.257812 C 46.46875 14.816406 44.089844 16.109375 41.171875 16.148438 C 38.253906 16.1875 35.894531 14.96875 35.90625 13.410156 C 35.917969 12.242188 37.261719 11.210938 39.164062 10.757812 Z M 22.492188 20.410156 C 23.125 20.257812 23.824219 20.167969 24.554688 20.15625 C 27.472656 20.117188 29.820312 21.339844 29.804688 22.898438 C 29.792969 24.453125 27.417969 25.761719 24.5 25.804688 C 21.582031 25.84375 19.230469 24.605469 19.246094 23.046875 C 19.257812 21.878906 20.589844 20.863281 22.492188 20.410156 Z M 50.015625 15.4375 C 50.648438 15.285156 51.351562 15.210938 52.082031 15.199219 C 55 15.160156 57.347656 16.382812 57.332031 17.941406 C 57.316406 19.5 54.941406 20.792969 52.023438 20.832031 C 49.105469 20.871094 46.757812 19.648438 46.773438 18.089844 C 46.78125 16.921875 48.113281 15.894531 50.015625 15.4375 Z M 10.242188 26.585938 C 10.1875 26.617188 10.191406 26.710938 10.195312 26.902344 L 11.414062 64.492188 C 11.417969 64.886719 11.453125 64.976562 11.867188 65.195312 L 44.636719 82.328125 C 45.410156 82.785156 45.542969 82.746094 45.457031 81.980469 L 44.886719 43.707031 C 44.9375 43.171875 44.699219 42.9375 44.363281 42.773438 L 10.574219 26.695312 C 10.398438 26.605469 10.296875 26.558594 10.242188 26.589844 Z M 33.347656 25.503906 C 33.980469 25.351562 34.679688 25.261719 35.410156 25.25 C 38.328125 25.210938 40.675781 26.4375 40.660156 27.992188 C 40.648438 29.550781 38.269531 30.84375 35.351562 30.882812 C 32.433594 30.921875 30.085938 29.699219 30.101562 28.140625 C 30.113281 26.972656 31.449219 25.960938 33.347656 25.503906 Z M 61.113281 20.277344 C 61.746094 20.125 62.449219 20.035156 63.175781 20.023438 C 66.09375 19.984375 68.441406 21.207031 68.429688 22.765625 C 68.414062 24.324219 66.042969 25.628906 63.125 25.671875 C 60.207031 25.710938 57.855469 24.472656 57.871094 22.914062 C 57.878906 21.746094 59.214844 20.730469 61.113281 20.277344 Z M 13.554688 32.789062 C 13.660156 32.753906 13.777344 32.730469 13.886719 32.710938 C 15.210938 32.476562 16.910156 33.367188 18.195312 35.140625 C 19.910156 37.5 20.230469 40.523438 18.917969 41.886719 C 17.609375 43.25 15.15625 42.441406 13.445312 40.082031 C 11.730469 37.722656 11.410156 34.699219 12.722656 33.335938 C 12.964844 33.082031 13.242188 32.898438 13.554688 32.789062 Z M 44.488281 30.53125 C 45.121094 30.378906 45.824219 30.289062 46.550781 30.277344 C 49.472656 30.238281 51.816406 31.464844 51.804688 33.019531 C 51.789062 34.578125 49.414062 35.871094 46.496094 35.910156 C 43.578125 35.949219 41.230469 34.726562 41.246094 33.167969 C 41.253906 32 42.589844 30.988281 44.488281 30.53125 Z M 78.027344 23.742188 C 77.972656 23.769531 77.890625 23.808594 77.800781 23.871094 L 47.886719 42.773438 C 47.289062 43.203125 47.335938 43.308594 47.339844 43.832031 L 47.898438 81.992188 C 47.996094 82.53125 47.855469 82.820312 48.417969 82.390625 L 77.691406 62.902344 C 78.246094 62.460938 78.351562 62.378906 78.277344 61.757812 L 78.230469 24.015625 C 78.238281 23.746094 78.203125 23.660156 78.027344 23.742188 Z M 74.125 30.867188 C 75.042969 30.667969 75.867188 30.945312 76.386719 31.730469 C 77.421875 33.292969 76.839844 36.320312 75.066406 38.496094 C 73.296875 40.667969 71.019531 41.15625 69.980469 39.59375 C 68.945312 38.027344 69.527344 35 71.296875 32.828125 C 72.183594 31.738281 73.203125 31.066406 74.125 30.867188 Z M 35.398438 43.238281 C 36.730469 42.960938 38.464844 43.867188 39.769531 45.664062 C 41.484375 48.027344 41.816406 51.046875 40.507812 52.410156 C 39.195312 53.769531 36.742188 52.953125 35.027344 50.589844 C 33.316406 48.230469 33 45.222656 34.308594 43.859375 C 34.554688 43.605469 34.828125 43.417969 35.144531 43.3125 C 35.226562 43.285156 35.3125 43.253906 35.398438 43.238281 Z M 24.757812 50.152344 C 26.089844 49.878906 27.824219 50.785156 29.128906 52.582031 C 30.839844 54.941406 31.175781 57.960938 29.867188 59.324219 C 28.554688 60.6875 26.101562 59.867188 24.386719 57.507812 C 22.675781 55.144531 22.355469 52.136719 23.667969 50.773438 C 23.914062 50.519531 24.1875 50.335938 24.5 50.226562 C 24.585938 50.199219 24.671875 50.171875 24.757812 50.152344 Z M 14.28125 56.984375 C 14.386719 56.949219 14.503906 56.925781 14.613281 56.90625 C 15.9375 56.671875 17.625 57.582031 18.910156 59.351562 C 20.625 61.710938 20.953125 64.71875 19.644531 66.082031 C 18.335938 67.441406 15.882812 66.636719 14.167969 64.277344 C 12.457031 61.917969 12.136719 58.894531 13.445312 57.53125 C 13.691406 57.277344 13.96875 57.089844 14.28125 56.984375 Z M 65.40625 48.691406 C 66.308594 48.511719 67.128906 48.789062 67.640625 49.558594 C 68.675781 51.125 68.078125 54.15625 66.308594 56.328125 C 64.535156 58.5 62.257812 58.992188 61.21875 57.425781 C 60.183594 55.863281 60.78125 52.832031 62.554688 50.65625 C 63.328125 49.707031 64.195312 49.074219 65.019531 48.796875 C 65.152344 48.753906 65.277344 48.71875 65.40625 48.691406 Z M 35.601562 67.921875 C 35.703125 67.886719 35.824219 67.863281 35.933594 67.84375 C 37.253906 67.609375 38.957031 68.5 40.242188 70.269531 C 41.953125 72.632812 42.273438 75.65625 40.964844 77.019531 C 39.652344 78.378906 37.214844 77.570312 35.503906 75.210938 C 33.789062 72.851562 33.457031 69.832031 34.765625 68.46875 C 35.011719 68.210938 35.285156 68.027344 35.601562 67.921875 Z M 55.746094 67.179688 C 56.664062 66.980469 57.484375 67.242188 58.003906 68.027344 C 59.042969 69.589844 58.457031 72.617188 56.6875 74.792969 C 54.914062 76.964844 52.640625 77.46875 51.601562 75.902344 C 50.566406 74.339844 51.148438 71.3125 52.921875 69.136719 C 53.808594 68.050781 54.824219 67.378906 55.746094 67.179688 Z M 55.746094 67.179688 " fill-opacity="1" fill-rule="nonzero"/></svg>